<?xml version="1.0" encoding="UTF-8" standalone="no"?><svg xmlns="http://www.w3.org/2000/svg" xmlns:xlink="http://www.w3.org/1999/xlink" contentScriptType="application/ecmascript" contentStyleType="text/css" height="656px" preserveAspectRatio="none" style="width:1466px;height:656px;" version="1.1" viewBox="0 0 1466 656" width="1466px" zoomAndPan="magnify"><defs><filter height="300%" id="f1x2v0r0idz2gc" width="300%" x="-1" y="-1"><feGaussianBlur result="blurOut" stdDeviation="2.0"/><feColorMatrix in="blurOut" result="blurOut2" type="matrix" values="0 0 0 0 0 0 0 0 0 0 0 0 0 0 0 0 0 0 .4 0"/><feOffset dx="4.0" dy="4.0" in="blurOut2" result="blurOut3"/><feBlend in="SourceGraphic" in2="blurOut3" mode="normal"/></filter></defs><g><!--MD5=[268e06fd5efba3b10cde68533f717b70]
cluster websites--><polygon fill="#FFFFFF" filter="url(#f1x2v0r0idz2gc)" points="16,64,26,54,277,54,277,146,267,156,16,156,16,64" style="stroke: #000000; stroke-width: 1.5;"/><line style="stroke: #000000; stroke-width: 1.5;" x1="267" x2="277" y1="64" y2="54"/><line style="stroke: #000000; stroke-width: 1.5;" x1="16" x2="267" y1="64" y2="64"/><line style="stroke: #000000; stroke-width: 1.5;" x1="267" x2="267" y1="64" y2="156"/><text fill="#000000" font-family="sans-serif" font-size="14" font-weight="bold" lengthAdjust="spacingAndGlyphs" textLength="72" x="106.5" y="79.9951">websites</text><!--MD5=[47c14c564e796a575e671c2b0469a7bb]
cluster backend--><polygon fill="#FFFFFF" filter="url(#f1x2v0r0idz2gc)" points="301,16,311,6,1449,6,1449,639,1439,649,301,649,301,16" style="stroke: #000000; stroke-width: 1.5;"/><line style="stroke: #000000; stroke-width: 1.5;" x1="1439" x2="1449" y1="16" y2="6"/><line style="stroke: #000000; stroke-width: 1.5;" x1="301" x2="1439" y1="16" y2="16"/><line style="stroke: #000000; stroke-width: 1.5;" x1="1439" x2="1439" y1="16" y2="649"/><text fill="#000000" font-family="sans-serif" font-size="14" font-weight="bold" lengthAdjust="spacingAndGlyphs" textLength="67" x="837.5" y="31.9951">backend</text><!--MD5=[8a741d217f0145f4325c1aa20c8413ef]
cluster emailrealitychecker--><polygon fill="#FFFFFF" filter="url(#f1x2v0r0idz2gc)" points="437,223,447,213,898,213,898,472,888,482,437,482,437,223" style="stroke: #000000; stroke-width: 1.5;"/><line style="stroke: #000000; stroke-width: 1.5;" x1="888" x2="898" y1="223" y2="213"/><line style="stroke: #000000; stroke-width: 1.5;" x1="437" x2="888" y1="223" y2="223"/><line style="stroke: #000000; stroke-width: 1.5;" x1="888" x2="888" y1="223" y2="482"/><text fill="#000000" font-family="sans-serif" font-size="14" font-weight="bold" lengthAdjust="spacingAndGlyphs" textLength="154" x="586.5" y="238.9951">emailrealitychecker</text><!--MD5=[800c321727b98a2165f81e25b7ec9a93]
cluster emailinbasechecker--><polygon fill="#FFFFFF" filter="url(#f1x2v0r0idz2gc)" points="995,223,1005,213,1228,213,1228,321,1218,331,995,331,995,223" style="stroke: #000000; stroke-width: 1.5;"/><line style="stroke: #000000; stroke-width: 1.5;" x1="1218" x2="1228" y1="223" y2="213"/><line style="stroke: #000000; stroke-width: 1.5;" x1="995" x2="1218" y1="223" y2="223"/><line style="stroke: #000000; stroke-width: 1.5;" x1="1218" x2="1218" y1="223" y2="331"/><text fill="#000000" font-family="sans-serif" font-size="14" font-weight="bold" lengthAdjust="spacingAndGlyphs" textLength="157" x="1029" y="238.9951">emailinbasechecker</text><!--MD5=[41b74575da43e5df8d6a00251d84343b]
cluster converters--><polygon fill="#FFFFFF" filter="url(#f1x2v0r0idz2gc)" points="1207,382,1217,372,1425,372,1425,464,1415,474,1207,474,1207,382" style="stroke: #000000; stroke-width: 1.5;"/><line style="stroke: #000000; stroke-width: 1.5;" x1="1415" x2="1425" y1="382" y2="372"/><line style="stroke: #000000; stroke-width: 1.5;" x1="1207" x2="1415" y1="382" y2="382"/><line style="stroke: #000000; stroke-width: 1.5;" x1="1415" x2="1415" y1="382" y2="474"/><text fill="#000000" font-family="sans-serif" font-size="14" font-weight="bold" lengthAdjust="spacingAndGlyphs" textLength="87" x="1268.5" y="397.9951">converters</text><!--MD5=[1497e3ba29964c870bef0c5efaf493a3]
cluster logs--><polygon fill="#FFFFFF" filter="url(#f1x2v0r0idz2gc)" points="930,382,940,372,1076,372,1076,464,1066,474,930,474,930,382" style="stroke: #000000; stroke-width: 1.5;"/><line style="stroke: #000000; stroke-width: 1.5;" x1="1066" x2="1076" y1="382" y2="372"/><line style="stroke: #000000; stroke-width: 1.5;" x1="930" x2="1066" y1="382" y2="382"/><line style="stroke: #000000; stroke-width: 1.5;" x1="1066" x2="1066" y1="382" y2="474"/><text fill="#000000" font-family="sans-serif" font-size="14" font-weight="bold" lengthAdjust="spacingAndGlyphs" textLength="33" x="982.5" y="397.9951">logs</text><!--MD5=[2142c6154c130725e68178fa9685dff2]
cluster logsAnalisis--><polygon fill="#FFFFFF" filter="url(#f1x2v0r0idz2gc)" points="1057,533,1067,523,1226,523,1226,615,1216,625,1057,625,1057,533" style="stroke: #000000; stroke-width: 1.5;"/><line style="stroke: #000000; stroke-width: 1.5;" x1="1216" x2="1226" y1="533" y2="523"/><line style="stroke: #000000; stroke-width: 1.5;" x1="1057" x2="1216" y1="533" y2="533"/><line style="stroke: #000000; stroke-width: 1.5;" x1="1216" x2="1216" y1="533" y2="625"/><text fill="#000000" font-family="sans-serif" font-size="14" font-weight="bold" lengthAdjust="spacingAndGlyphs" textLength="93" x="1091" y="548.9951">logsAnalisis</text><!--MD5=[f526d5162c735b126e4fdd9e20bb6fd1]
cluster apimanagement--><polygon fill="#FFFFFF" filter="url(#f1x2v0r0idz2gc)" points="407,64,417,54,608,54,608,146,598,156,407,156,407,64" style="stroke: #000000; stroke-width: 1.5;"/><line style="stroke: #000000; stroke-width: 1.5;" x1="598" x2="608" y1="64" y2="54"/><line style="stroke: #000000; stroke-width: 1.5;" x1="407" x2="598" y1="64" y2="64"/><line style="stroke: #000000; stroke-width: 1.5;" x1="598" x2="598" y1="64" y2="156"/><text fill="#000000" font-family="sans-serif" font-size="14" font-weight="bold" lengthAdjust="spacingAndGlyphs" textLength="125" x="441" y="79.9951">apimanagement</text><!--MD5=[08af8945a84acfe1eabc0963aa87c412]
entity web--><rect fill="#FEFECE" filter="url(#f1x2v0r0idz2gc)" height="46.2969" style="stroke: #A80036; stroke-width: 1.5;" width="94" x="167" y="94"/><rect fill="#FEFECE" height="10" style="stroke: #A80036; stroke-width: 1.5;" width="15" x="241" y="99"/><rect fill="#FEFECE" height="2" style="stroke: #A80036; stroke-width: 1.5;" width="4" x="239" y="101"/><rect fill="#FEFECE" height="2" style="stroke: #A80036; stroke-width: 1.5;" width="4" x="239" y="105"/><text fill="#000000" font-family="sans-serif" font-size="14" lengthAdjust="spacingAndGlyphs" textLength="54" x="182" y="126.9951">website</text><!--MD5=[a16c68a7c98cb65688962ca0b8d513aa]
entity swagger--><rect fill="#FEFECE" filter="url(#f1x2v0r0idz2gc)" height="46.2969" style="stroke: #A80036; stroke-width: 1.5;" width="99" x="32.5" y="94"/><rect fill="#FEFECE" height="10" style="stroke: #A80036; stroke-width: 1.5;" width="15" x="111.5" y="99"/><rect fill="#FEFECE" height="2" style="stroke: #A80036; stroke-width: 1.5;" width="4" x="109.5" y="101"/><rect fill="#FEFECE" height="2" style="stroke: #A80036; stroke-width: 1.5;" width="4" x="109.5" y="105"/><text fill="#000000" font-family="sans-serif" font-size="14" lengthAdjust="spacingAndGlyphs" textLength="59" x="47.5" y="126.9951">swagger</text><!--MD5=[23a79075e2a5e2a5fe554df347814021]
entity RFCValidation--><rect fill="#FEFECE" filter="url(#f1x2v0r0idz2gc)" height="46.2969" style="stroke: #A80036; stroke-width: 1.5;" width="134" x="468" y="261"/><rect fill="#FEFECE" height="10" style="stroke: #A80036; stroke-width: 1.5;" width="15" x="582" y="266"/><rect fill="#FEFECE" height="2" style="stroke: #A80036; stroke-width: 1.5;" width="4" x="580" y="268"/><rect fill="#FEFECE" height="2" style="stroke: #A80036; stroke-width: 1.5;" width="4" x="580" y="272"/><text fill="#000000" font-family="sans-serif" font-size="14" lengthAdjust="spacingAndGlyphs" textLength="94" x="483" y="293.9951">RFCValidation</text><!--MD5=[548d52cf1d030fdd07e52770b385bf7a]
entity NoRFCWarningsValidation--><rect fill="#FEFECE" filter="url(#f1x2v0r0idz2gc)" height="46.2969" style="stroke: #A80036; stroke-width: 1.5;" width="217" x="637.5" y="261"/><rect fill="#FEFECE" height="10" style="stroke: #A80036; stroke-width: 1.5;" width="15" x="834.5" y="266"/><rect fill="#FEFECE" height="2" style="stroke: #A80036; stroke-width: 1.5;" width="4" x="832.5" y="268"/><rect fill="#FEFECE" height="2" style="stroke: #A80036; stroke-width: 1.5;" width="4" x="832.5" y="272"/><text fill="#000000" font-family="sans-serif" font-size="14" lengthAdjust="spacingAndGlyphs" textLength="177" x="652.5" y="293.9951">NoRFCWarningsValidation</text><!--MD5=[95f45b07e396d4f1ab8bd8b4b59f6742]
entity DNSCheckValidation--><rect fill="#FEFECE" filter="url(#f1x2v0r0idz2gc)" height="46.2969" style="stroke: #A80036; stroke-width: 1.5;" width="180" x="461" y="412"/><rect fill="#FEFECE" height="10" style="stroke: #A80036; stroke-width: 1.5;" width="15" x="621" y="417"/><rect fill="#FEFECE" height="2" style="stroke: #A80036; stroke-width: 1.5;" width="4" x="619" y="419"/><rect fill="#FEFECE" height="2" style="stroke: #A80036; stroke-width: 1.5;" width="4" x="619" y="423"/><text fill="#000000" font-family="sans-serif" font-size="14" lengthAdjust="spacingAndGlyphs" textLength="140" x="476" y="444.9951">DNSCheckValidation</text><!--MD5=[bdb537f252c9ccf293d296bed375a624]
entity SpoofCheckValidation--><rect fill="#FEFECE" filter="url(#f1x2v0r0idz2gc)" height="46.2969" style="stroke: #A80036; stroke-width: 1.5;" width="190" x="676" y="412"/><rect fill="#FEFECE" height="10" style="stroke: #A80036; stroke-width: 1.5;" width="15" x="846" y="417"/><rect fill="#FEFECE" height="2" style="stroke: #A80036; stroke-width: 1.5;" width="4" x="844" y="419"/><rect fill="#FEFECE" height="2" style="stroke: #A80036; stroke-width: 1.5;" width="4" x="844" y="423"/><text fill="#000000" font-family="sans-serif" font-size="14" lengthAdjust="spacingAndGlyphs" textLength="150" x="691" y="444.9951">SpoofCheckValidation</text><!--MD5=[0fc01e9b1e9f59e2cba84cf94eadc317]
entity CheckDBPowned--><rect fill="#FEFECE" filter="url(#f1x2v0r0idz2gc)" height="46.2969" style="stroke: #A80036; stroke-width: 1.5;" width="161" x="1042.5" y="261"/><rect fill="#FEFECE" height="10" style="stroke: #A80036; stroke-width: 1.5;" width="15" x="1183.5" y="266"/><rect fill="#FEFECE" height="2" style="stroke: #A80036; stroke-width: 1.5;" width="4" x="1181.5" y="268"/><rect fill="#FEFECE" height="2" style="stroke: #A80036; stroke-width: 1.5;" width="4" x="1181.5" y="272"/><text fill="#000000" font-family="sans-serif" font-size="14" lengthAdjust="spacingAndGlyphs" textLength="121" x="1057.5" y="293.9951">CheckDBPowned</text><!--MD5=[480995fbafb6aafbebe6e39ccc6d54d4]
entity PownedListConverter--><rect fill="#FEFECE" filter="url(#f1x2v0r0idz2gc)" height="46.2969" style="stroke: #A80036; stroke-width: 1.5;" width="187" x="1222.5" y="412"/><rect fill="#FEFECE" height="10" style="stroke: #A80036; stroke-width: 1.5;" width="15" x="1389.5" y="417"/><rect fill="#FEFECE" height="2" style="stroke: #A80036; stroke-width: 1.5;" width="4" x="1387.5" y="419"/><rect fill="#FEFECE" height="2" style="stroke: #A80036; stroke-width: 1.5;" width="4" x="1387.5" y="423"/><text fill="#000000" font-family="sans-serif" font-size="14" lengthAdjust="spacingAndGlyphs" textLength="147" x="1237.5" y="444.9951">PownedListConverter</text><!--MD5=[da5b931a6736017b95cf2e302d03605a]
entity LogsWriter--><rect fill="#FEFECE" filter="url(#f1x2v0r0idz2gc)" height="46.2969" style="stroke: #A80036; stroke-width: 1.5;" width="113" x="946.5" y="412"/><rect fill="#FEFECE" height="10" style="stroke: #A80036; stroke-width: 1.5;" width="15" x="1039.5" y="417"/><rect fill="#FEFECE" height="2" style="stroke: #A80036; stroke-width: 1.5;" width="4" x="1037.5" y="419"/><rect fill="#FEFECE" height="2" style="stroke: #A80036; stroke-width: 1.5;" width="4" x="1037.5" y="423"/><text fill="#000000" font-family="sans-serif" font-size="14" lengthAdjust="spacingAndGlyphs" textLength="73" x="961.5" y="444.9951">LogsWriter</text><!--MD5=[5dabae7aa39383ae17e73518a7de7756]
entity LogParser--><rect fill="#FEFECE" filter="url(#f1x2v0r0idz2gc)" height="46.2969" style="stroke: #A80036; stroke-width: 1.5;" width="109" x="1074.5" y="563"/><rect fill="#FEFECE" height="10" style="stroke: #A80036; stroke-width: 1.5;" width="15" x="1163.5" y="568"/><rect fill="#FEFECE" height="2" style="stroke: #A80036; stroke-width: 1.5;" width="4" x="1161.5" y="570"/><rect fill="#FEFECE" height="2" style="stroke: #A80036; stroke-width: 1.5;" width="4" x="1161.5" y="574"/><text fill="#000000" font-family="sans-serif" font-size="14" lengthAdjust="spacingAndGlyphs" textLength="69" x="1089.5" y="595.9951">LogParser</text><!--MD5=[1040d496fae7d48a989dfa91490f33b9]
entity clientsdata--><path d="M317.5,271.5 C317.5,261.5 365,261.5 365,261.5 C365,261.5 412.5,261.5 412.5,271.5 L412.5,296.7969 C412.5,306.7969 365,306.7969 365,306.7969 C365,306.7969 317.5,306.7969 317.5,296.7969 L317.5,271.5 " fill="#FFFFFF" filter="url(#f1x2v0r0idz2gc)" style="stroke: #000000; stroke-width: 1.5;"/><path d="M317.5,271.5 C317.5,281.5 365,281.5 365,281.5 C365,281.5 412.5,281.5 412.5,271.5 " fill="none" style="stroke: #000000; stroke-width: 1.5;"/><text fill="#000000" font-family="sans-serif" font-size="14" lengthAdjust="spacingAndGlyphs" textLength="75" x="327.5" y="298.4951">clientsdata</text><!--MD5=[cbcb0b6bb9049f175013670218d739e8]
entity pawneddb--><path d="M1094.5,422.5 C1094.5,412.5 1141,412.5 1141,412.5 C1141,412.5 1187.5,412.5 1187.5,422.5 L1187.5,447.7969 C1187.5,457.7969 1141,457.7969 1141,457.7969 C1141,457.7969 1094.5,457.7969 1094.5,447.7969 L1094.5,422.5 " fill="#FFFFFF" filter="url(#f1x2v0r0idz2gc)" style="stroke: #000000; stroke-width: 1.5;"/><path d="M1094.5,422.5 C1094.5,432.5 1141,432.5 1141,432.5 C1141,432.5 1187.5,432.5 1187.5,422.5 " fill="none" style="stroke: #000000; stroke-width: 1.5;"/><text fill="#000000" font-family="sans-serif" font-size="14" lengthAdjust="spacingAndGlyphs" textLength="73" x="1104.5" y="449.4951">pawneddb</text><!--MD5=[1a7df6d1218f1108abad8ee5eca4baeb]
entity rawlogs--><path d="M966.5,573.5 C966.5,563.5 1003,563.5 1003,563.5 C1003,563.5 1039.5,563.5 1039.5,573.5 L1039.5,598.7969 C1039.5,608.7969 1003,608.7969 1003,608.7969 C1003,608.7969 966.5,608.7969 966.5,598.7969 L966.5,573.5 " fill="#FFFFFF" filter="url(#f1x2v0r0idz2gc)" style="stroke: #000000; stroke-width: 1.5;"/><path d="M966.5,573.5 C966.5,583.5 1003,583.5 1003,583.5 C1003,583.5 1039.5,583.5 1039.5,573.5 " fill="none" style="stroke: #000000; stroke-width: 1.5;"/><text fill="#000000" font-family="sans-serif" font-size="14" lengthAdjust="spacingAndGlyphs" textLength="53" x="976.5" y="600.4951">rawlogs</text><!--MD5=[14533ecc255b3b24a7ab7af6dc19c04d]
entity Kong--><rect fill="#FEFECE" filter="url(#f1x2v0r0idz2gc)" height="46.2969" style="stroke: #A80036; stroke-width: 1.5;" width="76" x="469" y="94"/><rect fill="#FEFECE" height="10" style="stroke: #A80036; stroke-width: 1.5;" width="15" x="525" y="99"/><rect fill="#FEFECE" height="2" style="stroke: #A80036; stroke-width: 1.5;" width="4" x="523" y="101"/><rect fill="#FEFECE" height="2" style="stroke: #A80036; stroke-width: 1.5;" width="4" x="523" y="105"/><text fill="#000000" font-family="sans-serif" font-size="14" lengthAdjust="spacingAndGlyphs" textLength="36" x="484" y="126.9951">Kong</text><!--MD5=[76ac73ca89d3c1b4f7f6dec05cf1b240]
link web to Kong--><path d="M266.25,117 C322.53,117 411.05,117 463.62,117 " fill="none" id="web-Kong" style="stroke: #A80036; stroke-width: 1.0;"/><polygon fill="#A80036" points="468.91,117,459.91,113,463.91,117,459.91,121,468.91,117" style="stroke: #A80036; stroke-width: 1.0;"/><polygon fill="#A80036" points="261.08,117,270.08,121,266.08,117,270.08,113,261.08,117" style="stroke: #A80036; stroke-width: 1.0;"/><text fill="#000000" font-family="sans-serif" font-size="13" lengthAdjust="spacingAndGlyphs" textLength="68" x="331" y="110.0669">All request</text><!--MD5=[eac8a911594456b0bb6a6705531760a3]
link Kong to emailrealitychecker--><path d="M550.29,120.44 C639.96,126.49 841.04,145.6 882,197 C884.8975,200.635 887.2106,204.6508 889.0384,208.9018 C889.4953,209.9646 889.922,211.042 890.3198,212.1319 C890.4192,212.4044 890.5169,212.6777 890.6128,212.9516 " fill="none" id="Kong-emailrealitychecker" style="stroke: #A80036; stroke-width: 1.0;"/><polygon fill="#A80036" points="890.6128,212.9516,891.4155,203.1356,888.9613,208.2323,883.8645,205.778,890.6128,212.9516" style="stroke: #A80036; stroke-width: 1.0;"/><polygon fill="#A80036" points="545.07,120.09,553.7753,124.6963,550.0583,120.4321,554.3226,116.7151,545.07,120.09" style="stroke: #A80036; stroke-width: 1.0;"/><!--MD5=[e071f4b8d45f67079830aabee9bfa49b]
link Kong to emailinbasechecker--><path d="M550.45,118.87 C619.41,121.5 757.24,131.81 866,172 C902.18,185.37 935.9325,212.4675 960.8825,236.5413 C973.3575,248.5781 983.6319,259.8591 990.9088,268.2902 C991.8184,269.344 992.6811,270.3534 993.4955,271.3141 C993.9027,271.7945 994.2978,272.2627 994.6806,272.7183 C994.7763,272.8322 994.8712,272.9453 994.9654,273.0576 " fill="none" id="Kong-emailinbasechecker" style="stroke: #A80036; stroke-width: 1.0;"/><polygon fill="#A80036" points="994.9654,273.0576,992.2478,263.591,991.7528,269.2262,986.1176,268.7312,994.9654,273.0576" style="stroke: #A80036; stroke-width: 1.0;"/><polygon fill="#A80036" points="545.2,118.69,554.0572,122.9969,550.197,118.8618,554.3321,115.0016,545.2,118.69" style="stroke: #A80036; stroke-width: 1.0;"/><!--MD5=[ccd2ac135dc0e3317eb53f987d05e349]
link emailinbasechecker to LogsWriter--><path d="M1003,331.215 C1003,355.885 1003,385.415 1003,406.48 " fill="none" id="emailinbasechecker-to-LogsWriter" style="stroke: #A80036; stroke-width: 1.0;"/><polygon fill="#A80036" points="1003,411.69,1007,402.69,1003,406.69,999,402.69,1003,411.69" style="stroke: #A80036; stroke-width: 1.0;"/><!--MD5=[720996956ce1f33f9111079b1b0f34c7]
link emailrealitychecker to LogsWriter--><path d="M898.1,295.6831 C898.1866,295.7972 898.2737,295.9121 898.3614,296.0278 C898.5368,296.259 898.7146,296.4934 898.8947,296.7309 C899.6151,297.6807 900.3726,298.6794 901.1645,299.7236 C907.5003,308.0772 916.0456,319.3444 925.5063,331.8188 C944.4275,356.7675 967.01,386.545 982.9,407.5 " fill="none" id="emailrealitychecker-to-LogsWriter" style="stroke: #A80036; stroke-width: 1.0;"/><polygon fill="#A80036" points="986.08,411.69,983.8416,402.0989,983.064,407.702,977.4609,406.9245,986.08,411.69" style="stroke: #A80036; stroke-width: 1.0;"/><!--MD5=[74230833145d5b562ffb3016ed4b015d]
link LogsWriter to rawlogs--><path d="M1003,458.31 C1003,484.9 1003,529.33 1003,557.89 " fill="none" id="LogsWriter-to-rawlogs" style="stroke: #A80036; stroke-width: 1.0;"/><polygon fill="#A80036" points="1003,563.03,1007,554.03,1003,558.03,999,554.03,1003,563.03" style="stroke: #A80036; stroke-width: 1.0;"/><!--MD5=[7ffe486052f90f11adfbc9e13389755a]
link Kong to clientsdata--><path d="M484.55,144.09 C457.86,175.1 413.61,226.52 387.08,257.34 " fill="none" id="Kong-clientsdata" style="stroke: #A80036; stroke-width: 1.0;"/><polygon fill="#A80036" points="383.62,261.36,392.522,257.1464,386.881,257.5698,386.4577,251.9288,383.62,261.36" style="stroke: #A80036; stroke-width: 1.0;"/><polygon fill="#A80036" points="487.85,140.25,478.948,144.4636,484.589,144.0402,485.0123,149.6812,487.85,140.25" style="stroke: #A80036; stroke-width: 1.0;"/><text fill="#000000" font-family="sans-serif" font-size="13" lengthAdjust="spacingAndGlyphs" textLength="238" x="458" y="185.0669">set/get client data from elasticsearch</text><!--MD5=[1195ca5f2e8814e921c2e20d0ead3b71]
link CheckDBPowned to pawneddb--><path d="M1126.32,312.47 C1129.57,339.37 1134.49,380.09 1137.72,406.87 " fill="none" id="CheckDBPowned-pawneddb" style="stroke: #A80036; stroke-width: 1.0;"/><polygon fill="#A80036" points="1138.35,412.03,1141.2396,402.6146,1137.7492,407.0662,1133.2975,403.5759,1138.35,412.03" style="stroke: #A80036; stroke-width: 1.0;"/><polygon fill="#A80036" points="1125.69,307.31,1122.8004,316.7254,1126.2908,312.2738,1130.7425,315.7641,1125.69,307.31" style="stroke: #A80036; stroke-width: 1.0;"/><!--MD5=[843e79cd1616150a7ea2765a1d6b5358]
link PownedListConverter to pawneddb--><path d="M1222.37,435 C1212.57,435 1202.76,435 1192.95,435 " fill="none" id="PownedListConverter-to-pawneddb" style="stroke: #A80036; stroke-width: 1.0;"/><polygon fill="#A80036" points="1187.83,435,1196.83,439,1192.83,435,1196.83,431,1187.83,435" style="stroke: #A80036; stroke-width: 1.0;"/><!--MD5=[e7c58d64de0d17c7cd1f330b154ccd3d]
reverse link LogParser to rawlogs--><path d="M1069.25,586 C1059.47,586 1049.69,586 1039.91,586 " fill="none" id="LogParser-backto-rawlogs" style="stroke: #A80036; stroke-width: 1.0;"/><polygon fill="#A80036" points="1074.37,586,1065.37,582,1069.37,586,1065.37,590,1074.37,586" style="stroke: #A80036; stroke-width: 1.0;"/><!--MD5=[7478560313b3f25da7b6dcd7a5d0ac3a]
link RFCValidation to NoRFCWarningsValidation--><!--MD5=[375ed60de36f8c812031b9575c385075]
link RFCValidation to DNSCheckValidation--><!--MD5=[6269227c8962c7c6917d37e2faa52103]
link DNSCheckValidation to SpoofCheckValidation--><!--MD5=[1ab7c55a6fb6ac3deea5db8feace53c4]
@startuml

node websites{
[website] as web
[swagger]
}
node backend {
    node emailrealitychecker{
        [RFCValidation]
        [NoRFCWarningsValidation]
        [DNSCheckValidation]
        [SpoofCheckValidation]

    }
    node emailinbasechecker {
        [CheckDBPowned]
    }
    node converters {
        [PownedListConverter]
    }
    node logs {
        [LogsWriter]
    }
    node logsAnalisis {
        [LogParser]
    }

    database "clientsdata"{

    }
    database "pawneddb"{

    }
    database "rawlogs"{

    }
    node apimanagement{
        [Kong]
    }
}

web <-> [Kong]: All request
[Kong] <- -> emailrealitychecker
[Kong] <- -> emailinbasechecker
emailinbasechecker - -> [LogsWriter]
emailrealitychecker - -> [LogsWriter]
[LogsWriter] - -> rawlogs
[Kong] <- -> clientsdata : set/get client data from elasticsearch
[CheckDBPowned] <- -> pawneddb
[PownedListConverter] -> pawneddb
[LogParser] <-rawlogs

@enduml

PlantUML version 1.2020.18(Wed Sep 30 22:40:44 MSK 2020)
(GPL source distribution)
Java Runtime: OpenJDK Runtime Environment
JVM: OpenJDK 64-Bit Server VM
Default Encoding: UTF-8
Language: en
Country: US
--></g></svg>